<svg width="327" height="326" viewBox="0 0 327 326" fill="none" xmlns="http://www.w3.org/2000/svg">
<g clip-path="url(#clip0_935_822)">
<path d="M132.985 23.7274H121.897C121.897 23.7274 118.006 51.7064 107.443 63.4816C97.4354 74.6368 78.7021 71.5763 78.7021 71.5763C78.7021 71.5763 78.6949 71.5995 78.686 71.6351C71.4405 69.6631 63.1768 70.096 57.5434 71.5799C48.7109 73.9082 42.3303 77.9609 42.3303 77.9609C42.3303 77.9609 28.7007 86.5652 29.0252 102.985C29.2767 115.725 38.8475 130.892 38.7726 131.979C37.9309 144.139 36.9894 143.724 38.2608 148.056C41.3441 158.574 85.0149 154.236 85.7924 149.416C86.4968 145.042 84.4674 137.729 85.4857 127.896C87.0924 112.392 90.2827 106.873 93.9134 97.3125C113.966 95.6861 126.925 84.3687 130.957 66.1911C135.118 47.4381 132.987 23.7256 132.987 23.7256L132.985 23.7274Z" fill="white"/>
<path d="M59.6632 154.938C49.2238 154.938 39.3498 153.183 37.8786 148.167C37.0422 145.311 37.1475 144.392 37.5398 140.964C37.7663 138.998 38.0748 136.304 38.3761 131.95C38.3476 131.719 37.7199 130.468 37.0547 129.145C34.3816 123.823 28.8195 112.75 28.6287 102.991C28.3042 86.5383 41.9802 77.7113 42.1192 77.624C42.1817 77.5831 48.6514 73.5125 57.443 71.1949C62.5913 69.8375 70.8265 69.1338 78.5873 71.1949C78.6444 71.1771 78.705 71.1717 78.7674 71.1824C78.9529 71.2127 97.4063 74.0755 107.15 63.2141C117.513 51.6634 121.468 23.9481 121.506 23.6702C121.532 23.4742 121.7 23.3281 121.898 23.3281H132.986C133.191 23.3281 133.363 23.4849 133.38 23.688C133.402 23.9249 135.47 47.6766 131.344 66.2746C127.223 84.8459 114.035 95.9923 94.1946 97.6846C93.59 99.2683 92.998 100.742 92.4256 102.17C89.6222 109.159 87.1988 115.192 85.8791 127.935C85.3049 133.479 85.7097 138.255 86.0343 142.092C86.2911 145.135 86.4944 147.536 86.1823 149.476C85.7062 152.433 73.8616 154.239 66.0152 154.733C63.9198 154.865 61.7799 154.936 59.6649 154.936L59.6632 154.938ZM68.1712 70.7104C64.0625 70.7104 60.3176 71.2555 57.6427 71.9609C48.976 74.2447 42.6043 78.2529 42.5419 78.2939C42.4064 78.3794 29.1049 86.9801 29.4205 102.975C29.6095 112.554 35.1163 123.521 37.7627 128.79C38.8487 130.951 39.1911 131.651 39.1661 132.005C38.863 136.377 38.5527 139.081 38.328 141.055C37.9392 144.44 37.8483 145.243 38.6401 147.944C40.2789 153.534 54.3846 154.67 65.9653 153.944C77.2623 153.235 85.1337 150.997 85.3994 149.351C85.6955 147.507 85.4868 145.029 85.2443 142.16C84.9162 138.289 84.5096 133.473 85.0909 127.853C86.423 115.002 88.8626 108.918 91.6891 101.876C92.2882 100.382 92.9088 98.8372 93.5419 97.1716C93.5954 97.0291 93.7274 96.9293 93.8807 96.9168C113.484 95.3278 126.515 84.3845 130.57 66.1036C134.391 48.879 132.861 27.1706 132.621 24.1191H122.238C121.746 27.3613 117.627 52.718 107.739 63.7414C98.2694 74.2964 80.9341 72.2798 78.8441 71.993C78.7639 72.0286 78.6729 72.0375 78.5802 72.0126C75.1278 71.072 71.5291 70.7086 68.1712 70.7086V70.7104Z" fill="black"/>
<path d="M271.222 306.646H77.6541C71.6426 306.646 67.0632 301.151 68.0244 295.094L109.655 32.8812C110.42 28.0589 114.5 24.5156 119.285 24.5156H312.853C318.864 24.5156 323.443 30.0113 322.482 36.0681L280.852 298.279C280.087 303.101 276.006 306.645 271.222 306.645V306.646Z" stroke="white" stroke-miterlimit="10"/>
<path d="M271.222 307.042H77.6543C74.7208 307.042 71.9317 305.748 70.004 303.493C68.0138 301.165 67.1489 298.079 67.634 295.031L109.263 32.8186C110.064 27.7772 114.277 24.1182 119.283 24.1182H312.851C315.785 24.1182 318.574 25.4115 320.501 27.6668C322.491 29.9951 323.356 33.0805 322.871 36.1285L281.241 298.339C280.44 303.381 276.226 307.04 271.22 307.04L271.222 307.042ZM119.285 24.9109C114.672 24.9109 110.786 28.2885 110.048 32.9433L68.4169 295.154C67.9693 297.974 68.7682 300.826 70.6067 302.978C72.3847 305.057 74.9526 306.249 77.6543 306.249H271.222C275.835 306.249 279.721 302.871 280.46 298.216L322.09 36.0056C322.538 33.1856 321.739 30.3335 319.9 28.1816C318.122 26.1027 315.554 24.9109 312.853 24.9109H119.285Z" fill="black"/>
<path d="M265.072 305.964H71.5037C65.4922 305.964 60.9128 300.477 61.874 294.431L103.503 32.6745C104.268 27.8611 108.348 24.3232 113.133 24.3232H306.7C312.712 24.3232 317.291 29.81 316.33 35.8562L274.7 297.613C273.934 302.426 269.854 305.964 265.07 305.964H265.072Z" stroke="white" stroke-miterlimit="10"/>
<path d="M265.071 306.361H71.5032C68.5644 306.361 65.7753 305.068 63.8458 302.811C61.8592 300.488 60.9979 297.411 61.4812 294.371L103.112 32.6122C103.913 27.5796 108.126 23.9277 113.132 23.9277H306.7C309.639 23.9277 312.43 25.221 314.357 27.4781C316.344 29.8011 317.205 32.8776 316.722 35.9185L275.091 297.675C274.291 302.708 270.077 306.359 265.071 306.359V306.361ZM113.132 24.7187C108.519 24.7187 104.633 28.0909 103.895 32.7369L62.264 294.493C61.8164 297.305 62.6136 300.148 64.4486 302.296C66.2265 304.377 68.798 305.569 71.5032 305.569H265.071C269.684 305.569 273.57 302.196 274.308 297.55L315.939 35.7938C316.387 32.9827 315.59 30.1395 313.755 27.9912C311.977 25.9105 309.405 24.7187 306.7 24.7187H113.132Z" fill="black"/>
<path d="M233.421 48.6328H177.31C168.342 48.6328 161.528 40.4258 163.023 31.4243L164.333 23.5344C164.467 22.7345 165.148 22.1484 165.946 22.1484H252.372C253.383 22.1484 254.154 23.0748 253.984 24.0902L252.656 32.0852C251.069 41.6407 242.939 48.6346 233.419 48.6346L233.421 48.6328Z" stroke="white" stroke-miterlimit="10"/>
<path d="M233.421 49.0283H177.31C172.98 49.0283 168.873 47.1168 166.043 43.782C163.133 40.3527 161.89 35.8244 162.632 31.3601L163.943 23.4702C164.109 22.4744 164.95 21.7529 165.945 21.7529H252.372C252.964 21.7529 253.526 22.013 253.911 22.4691C254.307 22.934 254.474 23.5486 254.375 24.1561L253.046 32.1511C251.421 41.9311 243.167 49.03 233.419 49.03L233.421 49.0283ZM165.945 22.5439C165.339 22.5439 164.825 22.9875 164.724 23.6003L163.413 31.4902C162.709 35.7264 163.887 40.0196 166.648 43.2707C169.326 46.4274 173.212 48.2373 177.31 48.2373H233.421C242.78 48.2373 250.706 41.4163 252.267 32.0193L253.595 24.0242C253.658 23.6484 253.552 23.2671 253.308 22.9803C253.073 22.7024 252.732 22.5439 252.374 22.5439H165.947H165.945Z" fill="black"/>
<path d="M195.649 39.4175H219.609C220.519 39.4175 221.293 38.8172 221.439 37.8998L224.722 16.5744C226.038 8.0859 219.62 0.395508 211.21 0.395508C204.483 0.395508 198.755 5.3728 197.7 12.1618L193.818 37.2994C193.634 38.452 194.504 39.4175 195.647 39.4175H195.649ZM205.452 13.537L205.478 13.3767C205.931 10.6262 208.26 8.61142 210.991 8.61142C214.448 8.61142 217.075 11.7859 216.503 15.2704L216.476 15.4307C216.023 18.1812 213.694 20.196 210.964 20.196C207.508 20.196 204.879 17.0215 205.452 13.537Z" fill="#B9FF66"/>
<path d="M219.611 39.813H195.651C194.979 39.813 194.349 39.5279 193.925 39.0309C193.508 38.5428 193.327 37.889 193.431 37.237L197.311 12.1012C198.403 5.08952 204.248 0 211.214 0C215.267 0 219.124 1.78677 221.796 4.90069C224.562 8.12506 225.772 12.4023 225.116 16.6331L221.833 37.9585C221.66 39.0505 220.747 39.8112 219.611 39.8112V39.813ZM211.212 0.790951C204.641 0.790951 199.123 5.59901 198.092 12.2223L194.21 37.3582C194.142 37.7893 194.253 38.199 194.524 38.5161C194.799 38.8368 195.207 39.0202 195.648 39.0202H219.608C220.344 39.0202 220.936 38.5339 221.045 37.8374L224.328 16.5138C224.949 12.5109 223.806 8.46531 221.189 5.4173C218.668 2.47796 215.03 0.792732 211.208 0.792732L211.212 0.790951ZM210.964 20.5914C209.227 20.5914 207.579 19.8236 206.444 18.4858C205.268 17.1034 204.765 15.2775 205.061 13.4729L205.088 13.3126C205.573 10.359 208.056 8.21591 210.991 8.21591C212.726 8.21591 214.376 8.9837 215.512 10.3216C216.687 11.7039 217.19 13.5299 216.894 15.3345L216.869 15.493C216.384 18.4466 213.899 20.5914 210.966 20.5914H210.964ZM205.843 13.6011C205.584 15.1759 206.023 16.7685 207.046 17.9728C208.032 19.1325 209.461 19.7987 210.962 19.7987C213.507 19.7987 215.661 17.9336 216.084 15.3648L216.109 15.2062C216.367 13.6314 215.929 12.0371 214.905 10.8328C213.919 9.67311 212.491 9.00686 210.989 9.00686C208.444 9.00686 206.29 10.872 205.868 13.4408L205.841 13.6011H205.843Z" fill="black"/>
<path d="M232.813 94.7023C233.359 95.3401 233.596 96.1862 233.464 97.0217L216.685 203.145C216.466 204.527 215.312 205.53 213.939 205.53H205.823C205.021 205.53 204.256 205.177 203.728 204.559C203.182 203.921 202.945 203.075 203.077 202.24L219.852 96.1168C220.071 94.7344 221.225 93.7314 222.598 93.7314H230.718C231.522 93.7314 232.285 94.086 232.813 94.7023Z" fill="white"/>
<path d="M204.573 121.938C205.119 122.574 205.358 123.417 205.23 124.25L193.048 203.133C192.834 204.521 191.678 205.529 190.302 205.529H182.182C181.38 205.529 180.618 205.177 180.091 204.562C179.545 203.926 179.306 203.084 179.434 202.25L191.611 123.367C191.825 121.979 192.98 120.971 194.359 120.971H202.481C203.282 120.971 204.045 121.323 204.573 121.938Z" fill="white"/>
<path d="M124.478 179.583C125.024 180.21 125.268 181.045 125.151 181.874L122.137 203.098C121.939 204.485 120.757 205.529 119.384 205.529H111.252C110.457 205.529 109.699 205.182 109.171 204.574C108.627 203.947 108.381 203.114 108.5 202.283L111.51 181.06C111.707 179.674 112.891 178.628 114.264 178.628H122.399C123.193 178.628 123.952 178.975 124.478 179.583Z" fill="white"/>
<path d="M151.144 162.802C151.69 163.44 151.929 164.284 151.797 165.119L145.801 203.142C145.582 204.526 144.428 205.529 143.055 205.529H134.937C134.135 205.529 133.372 205.176 132.844 204.558C132.298 203.921 132.061 203.076 132.191 202.241L138.183 164.218C138.402 162.834 139.556 161.829 140.929 161.829H149.05C149.853 161.829 150.616 162.184 151.144 162.802Z" fill="white"/>
<path d="M177.862 142.369C178.406 143.005 178.645 143.85 178.515 144.684L169.424 203.137C169.208 204.523 168.054 205.53 166.678 205.53H158.558C157.758 205.53 156.994 205.177 156.467 204.561C155.921 203.925 155.682 203.082 155.812 202.247L164.9 143.795C165.115 142.407 166.271 141.4 167.646 141.4H175.769C176.571 141.4 177.333 141.753 177.862 142.369Z" fill="white"/>
<path d="M233.415 94.1872C234.112 95.0031 234.414 96.0809 234.246 97.1444L217.467 203.267C217.187 205.038 215.704 206.322 213.938 206.322H205.822C204.786 206.322 203.804 205.866 203.124 205.074C202.429 204.259 202.126 203.182 202.293 202.116L219.069 95.9936C219.349 94.2229 220.832 92.9385 222.598 92.9385H230.717C231.753 92.9385 232.736 93.3945 233.415 94.1872ZM233.463 97.0215C233.595 96.186 233.358 95.3398 232.812 94.7021C232.284 94.0857 231.521 93.7312 230.717 93.7312H222.598C221.225 93.7312 220.071 94.7341 219.851 96.1165L203.076 202.239C202.944 203.075 203.181 203.921 203.727 204.559C204.255 205.177 205.02 205.53 205.822 205.53H213.938C215.311 205.53 216.465 204.527 216.684 203.144L233.463 97.0215Z" fill="black"/>
<path d="M190.827 123.247C191.102 121.469 192.585 120.178 194.358 120.178H202.481C203.513 120.178 204.496 120.632 205.174 121.423C205.871 122.233 206.176 123.308 206.012 124.371L193.832 203.254C193.557 205.03 192.072 206.322 190.301 206.322H182.182C181.149 206.322 180.167 205.868 179.487 205.077C178.792 204.266 178.487 203.192 178.651 202.128L190.827 123.247ZM194.358 120.97C192.98 120.97 191.824 121.979 191.61 123.366L179.434 202.25C179.305 203.083 179.544 203.926 180.09 204.562C180.618 205.176 181.379 205.529 182.182 205.529H190.301C191.678 205.529 192.833 204.521 193.047 203.133L205.229 124.25C205.357 123.416 205.118 122.574 204.573 121.938C204.045 121.323 203.282 120.97 202.481 120.97H194.358Z" fill="black"/>
<path d="M178.463 141.855C179.16 142.667 179.463 143.743 179.299 144.806L170.208 203.258C169.932 205.033 168.446 206.322 166.677 206.322H158.558C157.525 206.322 156.543 205.868 155.863 205.077C155.168 204.265 154.863 203.189 155.029 202.125L164.116 143.673C164.393 141.897 165.876 140.609 167.645 140.609H175.768C176.802 140.609 177.783 141.062 178.463 141.855ZM178.514 144.683C178.645 143.85 178.406 143.005 177.862 142.369C177.332 141.753 176.571 141.4 175.768 141.4H167.645C166.27 141.4 165.115 142.407 164.899 143.795L155.811 202.247C155.681 203.082 155.92 203.925 156.466 204.561C156.994 205.177 157.757 205.53 158.558 205.53H166.677C168.054 205.53 169.207 204.523 169.423 203.137L178.514 144.683Z" fill="black"/>
<path d="M138.183 164.219L132.191 202.242C132.061 203.077 132.298 203.921 132.844 204.559C133.372 205.177 134.135 205.53 134.938 205.53H143.055C144.428 205.53 145.582 204.527 145.801 203.143L151.797 165.12C151.929 164.285 151.69 163.44 151.144 162.803C150.616 162.185 149.853 161.83 149.05 161.83H140.929C139.556 161.83 138.403 162.835 138.183 164.219ZM137.4 164.096C137.68 162.325 139.164 161.039 140.929 161.039H149.05C150.085 161.039 151.067 161.493 151.747 162.288C152.444 163.102 152.747 164.18 152.58 165.243L146.584 203.266C146.304 205.037 144.821 206.323 143.055 206.323H134.938C133.903 206.323 132.921 205.867 132.241 205.074C131.544 204.26 131.241 203.182 131.408 202.119L137.4 164.096Z" fill="black"/>
<path d="M125.078 179.065C125.774 179.865 126.086 180.928 125.936 181.985L122.922 203.21C122.669 204.985 121.15 206.323 119.384 206.323H111.252C110.227 206.323 109.252 205.876 108.574 205.095C107.878 204.295 107.565 203.23 107.714 202.174L110.726 180.95C110.978 179.176 112.499 177.836 114.264 177.836H122.4C123.423 177.836 124.401 178.285 125.078 179.065ZM125.151 181.874C125.269 181.046 125.025 180.211 124.479 179.584C123.953 178.976 123.193 178.629 122.4 178.629H114.264C112.891 178.629 111.707 179.674 111.511 181.06L108.501 202.284C108.381 203.114 108.627 203.948 109.171 204.575C109.699 205.183 110.457 205.53 111.252 205.53H119.384C120.757 205.53 121.94 204.486 122.138 203.098L125.151 181.874Z" fill="black"/>
<path d="M107.753 234.522C104.777 234.522 102.355 232.06 102.355 229.036C102.355 226.011 104.777 223.549 107.753 223.549C110.73 223.549 113.151 226.011 113.151 229.036C113.151 232.06 110.73 234.522 107.753 234.522ZM107.753 224.34C105.214 224.34 103.147 226.445 103.147 229.036C103.147 231.626 105.214 233.731 107.753 233.731C110.293 233.731 112.36 231.626 112.36 229.036C112.36 226.445 110.293 224.34 107.753 224.34Z" fill="black"/>
<path d="M103.478 255.506C100.502 255.506 98.0801 253.044 98.0801 250.019C98.0801 246.994 100.502 244.532 103.478 244.532C106.454 244.532 108.876 246.994 108.876 250.019C108.876 253.044 106.454 255.506 103.478 255.506ZM103.478 245.323C100.939 245.323 98.8719 247.429 98.8719 250.019C98.8719 252.609 100.939 254.715 103.478 254.715C106.017 254.715 108.084 252.609 108.084 250.019C108.084 247.429 106.017 245.323 103.478 245.323Z" fill="black"/>
<path d="M99.7085 277.512C96.7322 277.512 94.3105 275.05 94.3105 272.025C94.3105 269 96.7322 266.538 99.7085 266.538C102.685 266.538 105.107 269 105.107 272.025C105.107 275.05 102.685 277.512 99.7085 277.512ZM99.7085 267.329C97.1691 267.329 95.1023 269.435 95.1023 272.025C95.1023 274.615 97.1691 276.721 99.7085 276.721C102.248 276.721 104.315 274.615 104.315 272.025C104.315 269.435 102.248 267.329 99.7085 267.329Z" fill="black"/>
<path d="M175.878 229.431H122.333C122.114 229.431 121.938 229.254 121.938 229.035C121.938 228.816 122.114 228.64 122.333 228.64H175.878C176.097 228.64 176.274 228.818 176.274 229.035C176.274 229.252 176.096 229.431 175.878 229.431Z" fill="black"/>
<path d="M172.525 250.243H166.953C166.733 250.243 166.557 250.067 166.557 249.848C166.557 249.629 166.733 249.452 166.953 249.452H172.525C172.745 249.452 172.921 249.63 172.921 249.848C172.921 250.065 172.745 250.243 172.525 250.243Z" fill="white"/>
<path d="M156.771 250.243H118.98C118.761 250.243 118.584 250.067 118.584 249.848C118.584 249.629 118.761 249.452 118.98 249.452H156.771C156.99 249.452 157.167 249.63 157.167 249.848C157.167 250.065 156.989 250.243 156.771 250.243Z" fill="black"/>
<path d="M168.169 271.738H114.624C114.405 271.738 114.229 271.56 114.229 271.343C114.229 271.125 114.405 270.947 114.624 270.947H168.169C168.389 270.947 168.565 271.124 168.565 271.343C168.565 271.562 168.387 271.738 168.169 271.738Z" fill="black"/>
<path d="M111.436 132.936C111.436 132.936 119.442 132.819 123.626 131.004C127.81 129.19 127.745 132.336 126.561 133.442C125.602 134.34 119.821 137.559 114.637 137.935L111.436 132.935V132.936Z" fill="white"/>
<path d="M114.639 138.33C114.505 138.33 114.378 138.263 114.305 138.149L111.104 133.148C111.026 133.027 111.02 132.874 111.088 132.747C111.156 132.621 111.288 132.541 111.431 132.539C111.509 132.539 119.407 132.4 123.469 130.64C126.043 129.525 127.022 130.262 127.377 130.802C127.958 131.686 127.557 133.055 126.834 133.732C125.727 134.767 119.823 137.958 114.669 138.33C114.66 138.33 114.649 138.33 114.64 138.33H114.639ZM112.147 133.312L114.844 137.521C119.922 137.071 125.492 133.902 126.292 133.153C126.774 132.703 127.063 131.767 126.713 131.237C126.342 130.672 125.276 130.72 123.785 131.367C120.261 132.895 114.214 133.239 112.147 133.312Z" fill="black"/>
<path d="M99.7578 129.937L103.729 122.101L107.413 124.24C107.617 124.358 107.79 124.523 107.918 124.719L108.15 125.077C108.441 125.526 108.952 125.786 109.482 125.754C109.769 125.736 110.056 125.804 110.308 125.95L137.702 141.826C137.929 141.956 138.136 142.117 138.321 142.302L143.98 147.985L136.429 146.67C136.017 146.599 135.616 146.474 135.236 146.298L106.579 133.081C106.335 132.969 106.124 132.791 105.973 132.568L105.935 132.513C105.643 132.085 105.147 131.84 104.637 131.866L104.378 131.881C104.141 131.893 103.904 131.847 103.686 131.747L99.7596 129.937H99.7578Z" fill="white"/>
<path d="M143.978 148.382C143.955 148.382 143.932 148.38 143.91 148.377L136.36 147.062C135.916 146.984 135.481 146.848 135.069 146.659L106.411 133.443C106.101 133.301 105.837 133.076 105.643 132.795L105.605 132.738C105.391 132.426 105.031 132.244 104.655 132.264L104.396 132.278C104.097 132.294 103.794 132.235 103.517 132.109L99.5903 130.299C99.4922 130.254 99.4173 130.171 99.3817 130.069C99.346 129.968 99.3531 129.855 99.4031 129.761L103.374 121.924C103.424 121.826 103.512 121.755 103.615 121.723C103.719 121.693 103.833 121.705 103.927 121.761L107.612 123.9C107.868 124.048 108.088 124.258 108.248 124.507L108.48 124.866C108.694 125.197 109.07 125.386 109.454 125.363C109.821 125.339 110.183 125.427 110.504 125.612L137.899 141.488C138.154 141.636 138.391 141.818 138.6 142.028L144.258 147.71C144.379 147.833 144.408 148.02 144.327 148.172C144.258 148.304 144.122 148.386 143.976 148.386L143.978 148.382ZM104.71 131.471C105.322 131.471 105.908 131.779 106.26 132.292L106.297 132.348C106.41 132.511 106.563 132.641 106.743 132.723L135.4 145.94C135.75 146.1 136.119 146.216 136.495 146.282L142.817 147.383L138.038 142.584C137.877 142.423 137.697 142.284 137.501 142.17L110.106 126.294C109.921 126.187 109.712 126.137 109.504 126.15C108.828 126.193 108.184 125.863 107.815 125.293L107.583 124.935C107.49 124.791 107.362 124.67 107.212 124.582L103.892 122.655L100.295 129.75L103.847 131.389C104.006 131.462 104.179 131.496 104.352 131.487L104.61 131.473C104.642 131.473 104.676 131.471 104.708 131.471H104.71Z" fill="black"/>
<path d="M136.923 144.852C136.869 144.852 136.816 144.841 136.764 144.818C136.564 144.731 136.473 144.496 136.561 144.296L137.606 141.927C137.693 141.727 137.928 141.636 138.128 141.724C138.328 141.811 138.419 142.046 138.331 142.246L137.286 144.615C137.22 144.763 137.076 144.852 136.924 144.852H136.923Z" fill="black"/>
<path d="M97.3595 118.64L103.323 121.852C103.628 122.016 103.745 122.397 103.585 122.705L100.086 129.41C99.9221 129.724 99.5351 129.843 99.2248 129.676L93.274 126.471C92.081 125.828 91.6084 124.356 92.2219 123.182L94.0908 119.602C94.7024 118.428 96.1665 117.998 97.3613 118.642L97.3595 118.64Z" fill="black"/>
<path d="M99.52 130.148C99.3524 130.148 99.1848 130.107 99.0332 130.025L93.0824 126.82C91.7004 126.075 91.1565 124.362 91.8662 123.001L93.7351 119.42C94.0757 118.768 94.6535 118.289 95.3597 118.071C96.0872 117.849 96.863 117.927 97.5442 118.294L103.507 121.506C104.001 121.771 104.192 122.393 103.932 122.89L100.433 129.595C100.305 129.841 100.087 130.023 99.8214 130.103C99.7216 130.133 99.6199 130.149 99.5183 130.149L99.52 130.148ZM96.1871 118.736C95.9874 118.736 95.7894 118.766 95.595 118.825C95.0922 118.98 94.682 119.318 94.4395 119.783L92.5706 123.364C92.0588 124.346 92.4583 125.582 93.4605 126.122L99.4113 129.326C99.4683 129.357 99.5307 129.364 99.5932 129.344C99.6538 129.325 99.7037 129.284 99.734 129.227L103.233 122.521C103.293 122.406 103.249 122.261 103.135 122.201L97.1715 118.989C96.8612 118.821 96.5241 118.738 96.1871 118.738V118.736Z" fill="black"/>
<path d="M106.068 131.104C106.006 131.104 105.942 131.09 105.881 131.058C105.689 130.955 105.615 130.714 105.719 130.522L107.695 126.836C107.798 126.644 108.037 126.571 108.232 126.674C108.424 126.777 108.497 127.018 108.394 127.21L106.418 130.896C106.347 131.029 106.209 131.104 106.068 131.104Z" fill="black"/>
<path d="M118.92 133.919C118.854 133.919 118.788 133.903 118.725 133.869L110.558 129.289C110.367 129.182 110.299 128.94 110.406 128.749C110.513 128.558 110.754 128.491 110.947 128.598L119.114 133.178C119.305 133.284 119.373 133.527 119.266 133.717C119.192 133.847 119.059 133.919 118.92 133.919Z" fill="black"/>
<path d="M135.088 143.343C135.023 143.343 134.957 143.327 134.896 143.293L131.706 141.521C131.515 141.414 131.445 141.173 131.552 140.983C131.659 140.792 131.9 140.723 132.091 140.83L135.281 142.602C135.472 142.709 135.541 142.949 135.434 143.14C135.361 143.27 135.228 143.343 135.088 143.343Z" fill="black"/>
<path d="M98.9296 127.354C98.8654 127.354 98.7994 127.338 98.7388 127.306L94.1825 124.81C93.9899 124.705 93.9204 124.465 94.0256 124.272C94.1308 124.08 94.3715 124.01 94.5641 124.115L99.1204 126.611C99.313 126.716 99.3826 126.957 99.2773 127.149C99.206 127.281 99.0687 127.354 98.9296 127.354Z" fill="white"/>
<path d="M96.9975 136.068C96.9975 136.068 104.082 137.073 108.862 133.385C112.926 130.248 121.157 139.226 121.865 140.366C122.867 141.98 120.662 144.515 118.115 143.08C118.115 143.08 117.441 147.081 111.945 147.752C106.449 148.424 104.104 144.827 102.629 144.291C101.154 143.755 96.9297 143.724 96.9297 143.724L96.9975 136.068Z" fill="white"/>
<path d="M110.596 148.231C107.217 148.231 105.166 146.623 103.754 145.515C103.251 145.121 102.817 144.779 102.491 144.661C101.096 144.154 96.9664 144.12 96.9254 144.12C96.8201 144.12 96.7203 144.077 96.6454 144.002C96.5723 143.927 96.5312 143.826 96.5312 143.721L96.599 136.064C96.599 135.95 96.6507 135.842 96.7363 135.769C96.8219 135.694 96.936 135.66 97.0502 135.676C97.1197 135.685 104.03 136.611 108.617 133.071C109.476 132.407 110.551 132.186 111.814 132.414C116.204 133.207 121.636 139.253 122.198 140.158C122.735 141.022 122.556 142.162 121.754 142.996C121.076 143.701 119.816 144.243 118.362 143.642C117.963 144.793 116.533 147.59 111.989 148.146C111.5 148.205 111.036 148.233 110.594 148.233L110.596 148.231ZM97.3284 143.332C98.4304 143.354 101.499 143.455 102.764 143.917C103.208 144.079 103.664 144.437 104.244 144.891C105.738 146.063 107.994 147.834 111.894 147.357C117.01 146.731 117.695 143.161 117.722 143.01C117.743 142.884 117.827 142.775 117.943 142.72C118.061 142.664 118.196 142.67 118.307 142.732C119.55 143.434 120.607 143.044 121.183 142.445C121.638 141.971 121.92 141.211 121.526 140.573C121.053 139.812 115.784 133.934 111.675 133.191C110.63 133.002 109.786 133.168 109.102 133.695C104.888 136.946 99.051 136.666 97.389 136.508L97.3284 143.331V143.332Z" fill="black"/>
<path d="M48.8566 79.1523C48.8566 79.1523 39.152 83.2318 34.0286 99.8364C31.2003 109 31.7193 122.069 45.6663 139.441C48.4554 142.915 52.3732 146.371 56.7975 146.871L99.1843 147.283L98.9953 133.728C98.9953 133.728 66.1241 129.461 61.1826 127.605C56.8065 125.961 50.4687 104.557 49.8089 94.0557L48.8566 79.1541V79.1523Z" fill="white"/>
<path d="M99.1833 147.677H99.1797L56.793 147.265C56.7787 147.265 56.7662 147.265 56.7519 147.263C51.9228 146.718 47.889 142.844 45.3568 139.689C43.8535 137.816 42.4055 135.921 41.0502 134.052C40.9218 133.876 40.961 133.628 41.1375 133.5C41.3141 133.372 41.562 133.411 41.6904 133.589C43.0385 135.447 44.4794 137.334 45.9738 139.195C48.4098 142.229 52.267 145.954 56.8197 146.478L98.7803 146.886L98.602 134.079C94.907 133.596 65.7557 129.75 61.0425 127.979C57.1068 126.501 52.4542 111.646 50.5479 102.072C50.5051 101.859 50.6442 101.65 50.86 101.607C51.074 101.565 51.2826 101.704 51.3254 101.919C53.5189 112.944 58.1643 126.054 61.3207 127.24C66.1623 129.059 98.7161 133.299 99.0442 133.34C99.2404 133.365 99.3866 133.53 99.3902 133.726L99.5792 147.281C99.5792 147.388 99.5382 147.491 99.4633 147.566C99.3884 147.641 99.2885 147.682 99.1833 147.682V147.677Z" fill="black"/>
<path d="M135.217 25.2717C135.711 26.5562 136.677 30.0121 135.083 32.328C133.655 34.4051 130.67 34.4888 128.975 32.6237C128.087 31.6457 127.656 30.0477 126.991 27.7925C126.664 26.6844 126.177 25.9202 125.641 25.2326C125.289 24.7836 124.753 24.5218 124.182 24.52L119.141 24.495C119.141 24.495 119.18 22.5337 120.647 21.7481C121.931 21.0605 125.254 21.627 125.514 21.2368C128.419 16.8741 133.232 20.1056 135.217 25.2735V25.2717Z" fill="white"/>
<path d="M131.958 34.3515C130.717 34.3515 129.537 33.8277 128.682 32.8889C127.785 31.902 127.343 30.3949 126.73 28.3053L126.61 27.9027C126.282 26.7893 125.777 26.0518 125.328 25.4747C125.052 25.1202 124.633 24.9153 124.18 24.9135L119.138 24.8886C119.033 24.8886 118.931 24.8458 118.857 24.7692C118.782 24.6926 118.742 24.5911 118.744 24.4842C118.746 24.3951 118.807 22.2806 120.46 21.3952C121.284 20.9534 122.737 20.9712 123.903 20.9855C124.404 20.9908 125.021 20.9997 125.228 20.9463C126.573 18.9725 128.153 18.6981 129.248 18.8193C131.694 19.09 134.241 21.625 135.585 25.1273C135.88 25.8951 137.258 29.8623 135.409 32.5487C134.685 33.5997 133.537 34.2535 132.256 34.339C132.156 34.3461 132.056 34.3497 131.957 34.3497L131.958 34.3515ZM119.582 24.0994L124.183 24.1226C124.88 24.1261 125.526 24.4414 125.952 24.9883C126.448 25.6225 127.004 26.4402 127.37 27.6801L127.489 28.0844C128.073 30.0707 128.495 31.5065 129.269 32.3581C130.027 33.1936 131.097 33.6282 132.204 33.5534C133.242 33.4839 134.171 32.9548 134.758 32.1033C136.381 29.7429 135.118 26.116 134.847 25.4141C133.626 22.2307 131.288 19.8436 129.162 19.6084C127.873 19.4659 126.755 20.0859 125.845 21.454C125.624 21.7871 125.119 21.7942 123.896 21.7782C122.876 21.7657 121.482 21.7479 120.836 22.0935C119.968 22.5585 119.679 23.5436 119.584 24.0976L119.582 24.0994Z" fill="black"/>
<path d="M52.7076 276.193L49.6172 291.009L57.7061 293.297L62.1786 278.873L52.7076 276.193Z" fill="white"/>
<path d="M57.7071 293.692C57.6714 293.692 57.6357 293.687 57.5983 293.678L49.5111 291.391C49.3114 291.334 49.1883 291.132 49.2311 290.929L52.3198 276.115C52.343 276.008 52.409 275.914 52.5017 275.857C52.5962 275.8 52.7085 275.784 52.8155 275.814L62.2865 278.493C62.39 278.522 62.4756 278.591 62.5273 278.686C62.579 278.78 62.5897 278.89 62.5576 278.992L58.0851 293.416C58.0334 293.585 57.8765 293.696 57.7071 293.696V293.692ZM50.0818 290.728L57.4431 292.81L61.682 279.143L53.0099 276.69L50.0818 290.728Z" fill="black"/>
<path d="M46.9433 303.495C47.0343 304.92 48.7801 306.064 50.1907 306.278C55.0965 307.019 66.6254 306.705 69.7568 306.922C73.8209 307.204 81.4533 306.901 81.7494 304.311C82.1096 301.151 78.7017 296.542 70.5468 294.018C66.3293 292.712 61.8694 286.244 59.8953 286.128C57.9212 286.012 54.4277 291.121 54.4277 291.121L48.8068 289.212C48.8068 289.212 46.4797 296.266 46.9415 303.497L46.9433 303.495Z" fill="white"/>
<path d="M72.3161 307.388C70.827 307.388 69.766 307.318 69.7303 307.317C68.6603 307.243 66.5578 307.231 64.1219 307.219C59.332 307.192 53.3705 307.16 50.1321 306.67C48.4825 306.42 46.6493 305.097 46.5494 303.522C46.0858 296.3 48.4094 289.16 48.4326 289.089C48.4665 288.989 48.5378 288.906 48.6323 288.859C48.7268 288.811 48.8356 288.804 48.9373 288.838L54.2746 290.651C55.0682 289.529 57.9785 285.621 59.9205 285.733C60.9476 285.793 62.319 287.106 64.0577 288.77C66.0015 290.63 68.4214 292.946 70.6665 293.641C79.0961 296.25 82.5253 301.025 82.1455 304.356C81.8441 306.994 75.8666 307.39 72.3178 307.39L72.3161 307.388ZM49.0674 289.716C48.6038 291.273 46.9471 297.346 47.3394 303.469C47.4143 304.644 48.9337 305.687 50.2498 305.884C53.4329 306.365 59.3623 306.397 64.1255 306.424C66.5739 306.438 68.6906 306.449 69.7838 306.526C74.3115 306.837 81.1201 306.335 81.3555 304.263C81.7104 301.149 78.0725 296.76 70.4293 294.394C68.0041 293.644 65.5111 291.257 63.5067 289.338C62.0158 287.912 60.607 286.563 59.8705 286.52C58.5919 286.445 56.0561 289.438 54.7525 291.343C54.6527 291.489 54.4672 291.551 54.2978 291.494L49.0639 289.714L49.0674 289.716Z" fill="black"/>
<path d="M74.4344 303.535C73.3609 303.535 72.1821 303.474 70.9338 303.409C69.0845 303.312 67.1711 303.213 65.2879 303.298C61.0152 303.492 57.3595 303.325 55.0466 303.148C50.7578 302.822 50.5884 302.552 50.5242 302.45C50.4475 302.329 50.4421 302.174 50.5117 302.048C50.6169 301.855 50.8576 301.784 51.0485 301.887C51.0485 301.887 51.052 301.887 51.0538 301.889C51.7386 302.069 57.6947 302.849 65.2523 302.505C67.1729 302.418 69.1059 302.518 70.9748 302.616C73.8067 302.764 76.4798 302.903 78.0259 302.245C78.2274 302.16 78.4593 302.252 78.5466 302.454C78.6322 302.655 78.5395 302.887 78.338 302.974C77.3251 303.405 75.9894 303.533 74.4344 303.533V303.535Z" fill="black"/>
<path d="M63.966 298.454C63.8661 298.454 63.7663 298.417 63.6896 298.342C63.5327 298.189 63.5309 297.937 63.6825 297.783L66.6427 294.756C66.7961 294.599 67.0475 294.597 67.2027 294.749C67.3596 294.902 67.3614 295.153 67.2098 295.308L64.2495 298.335C64.1711 298.415 64.0694 298.454 63.966 298.454Z" fill="black"/>
<path d="M8.84163 275.489L8.42969 285.821L15.6502 287.564L16.9359 275.562L8.84163 275.489Z" fill="white"/>
<path d="M15.6499 287.961C15.6196 287.961 15.5875 287.957 15.5571 287.95L8.33665 286.208C8.15297 286.164 8.02636 285.996 8.03349 285.807L8.44543 275.473C8.45434 275.261 8.62911 275.094 8.84132 275.094H8.84488L16.9392 275.167C17.0515 275.167 17.1567 275.217 17.2316 275.299C17.3065 275.382 17.3422 275.493 17.3297 275.603L16.044 287.606C16.0315 287.72 15.9709 287.822 15.8781 287.888C15.8104 287.936 15.7301 287.961 15.6499 287.961ZM8.83775 285.513L15.3021 287.074L16.4934 275.954L9.21937 275.888L8.83597 285.513H8.83775Z" fill="black"/>
<path d="M16.7515 306.352C13.8573 306.76 9.13513 306.933 3.54276 306.347C1.03547 306.083 0.0582348 302.6 0.498705 300.808C1.7256 295.815 3.85662 287.763 7.48381 283.374L8.81592 286.055L10.0731 283.441C10.2443 283.135 10.5493 282.926 10.897 282.882L13.6094 282.909C14.1782 282.836 14.7079 283.213 14.8256 283.776L15.2589 285.841L17.5736 283.174L19.3801 302.871C19.6012 304.558 18.4314 306.115 16.7497 306.352H16.7515Z" fill="white"/>
<path d="M10.5757 307.123C8.58908 307.123 6.21553 307.025 3.4996 306.74C2.53484 306.639 1.68957 306.11 1.05472 305.207C0.057867 303.792 -0.173959 301.875 0.111365 300.714C1.58257 294.723 3.71537 287.31 7.17672 283.122C7.26232 283.019 7.39606 282.966 7.52803 282.982C7.66177 282.998 7.77769 283.08 7.83832 283.199L8.8102 285.153L9.71611 283.27C9.95685 282.834 10.3759 282.55 10.8485 282.49C10.8663 282.488 10.8806 282.486 10.902 282.486L13.5894 282.511C14.3509 282.429 15.057 282.944 15.2157 283.694L15.485 284.979L17.2772 282.916C17.3806 282.796 17.5465 282.75 17.6981 282.798C17.8496 282.846 17.9566 282.982 17.9709 283.138L19.7774 302.835C20.0253 304.718 18.6949 306.479 16.8082 306.744C15.7757 306.89 13.6393 307.123 10.5774 307.123H10.5757ZM7.40498 284.111C3.8509 288.814 1.7823 297.236 0.881742 300.904C0.644566 301.868 0.85321 303.545 1.70383 304.752C2.21029 305.472 2.84335 305.876 3.58341 305.955C8.3091 306.45 13.2096 306.454 16.6959 305.962C18.1528 305.757 19.1818 304.394 18.9892 302.925L17.2665 284.138L15.5617 286.103C15.4636 286.217 15.3085 286.265 15.1622 286.227C15.016 286.19 14.9055 286.072 14.8734 285.926L14.44 283.862C14.3651 283.504 14.0245 283.259 13.6607 283.306C13.6429 283.308 13.6251 283.309 13.6072 283.309L10.9252 283.284C10.713 283.318 10.5257 283.45 10.4205 283.639L9.17399 286.233C9.10801 286.37 8.9707 286.455 8.81912 286.457C8.68537 286.45 8.52845 286.373 8.46246 286.238L7.40855 284.118L7.40498 284.111Z" fill="black"/>
<path d="M8.70943 303.891C6.85839 303.891 4.85576 303.727 2.85849 303.271C2.6445 303.223 2.51253 303.011 2.56068 302.797C2.60883 302.583 2.82283 302.451 3.03504 302.499C9.8436 304.053 16.9607 302.056 17.032 302.036C17.2406 301.976 17.4618 302.097 17.5224 302.307C17.583 302.517 17.4618 302.736 17.2513 302.797C17.0373 302.857 13.3531 303.891 8.71121 303.891H8.70943Z" fill="black"/>
<path d="M7.0504 296.243C6.83819 296.243 6.66165 296.074 6.65451 295.86C6.64738 295.641 6.81857 295.459 7.03792 295.452L13.5451 295.236C13.7609 295.235 13.9463 295.4 13.9535 295.619C13.9606 295.838 13.7894 296.02 13.5701 296.027L7.06288 296.243C7.06288 296.243 7.05397 296.243 7.0504 296.243Z" fill="black"/>
<path d="M85.082 151.724C87.8211 167.737 92.8 207.09 82.0504 236.526C72.7988 261.86 66.1953 274.476 63.6577 279.058C62.964 280.31 61.5801 281.008 60.1606 280.827L53.5661 279.979C51.6116 279.728 50.251 277.909 50.563 275.96C52.9687 260.887 62.5253 187.519 59.9788 180.738L19.0257 276.908C18.5835 277.928 17.5741 278.584 16.4632 278.571L9.54582 278.495C8.00507 278.477 6.77639 277.196 6.8174 275.653C8.86104 197.814 31.6728 185.289 38.3565 148.073C38.3725 147.986 40.5446 150.601 40.6266 150.649C47.3193 154.522 50.6683 154.221 60.9346 154.782C72.0409 155.388 82.3553 151.202 84.7877 151.316C84.9732 151.325 85.0499 151.54 85.082 151.725V151.724Z" fill="black"/>
<path d="M72.8461 77.1616L74.7382 67.4654C74.8737 66.8134 75.4123 66.3217 76.0721 66.2451L79.8776 65.8122C80.689 65.7196 81.3399 65.0979 81.4683 64.2891L82.3296 58.8807C82.3296 58.8807 82.3368 58.8647 82.3439 58.8611L84.1521 57.8831C84.5124 57.6889 84.6497 57.2418 84.4642 56.8766L82.5597 53.1534C82.1887 52.4284 81.6787 48.3365 80.8673 48.3774C80.8673 48.3774 67.1717 43.6121 63.1433 49.2931C62.0769 50.7984 61.9574 52.7829 62.6797 54.4806L63.6016 56.6468C64.5592 58.8985 64.7732 61.4299 64.0403 63.7636C63.7799 64.5955 63.4126 65.4007 62.9454 66.1542L57.7988 74.1724C61.5384 76.0483 65.6506 77.0548 69.8324 77.1153L72.8461 77.1599V77.1616Z" fill="white"/>
<path d="M72.8477 77.5568H72.8424L69.8286 77.5122C65.613 77.4499 61.3919 76.4167 57.6239 74.5266C57.524 74.4767 57.4491 74.3858 57.4188 74.2772C57.3885 74.1685 57.4063 74.0527 57.4669 73.9583L62.6135 65.9401C63.0557 65.2258 63.4106 64.4526 63.6638 63.6439C64.3433 61.4741 64.1935 59.0442 63.2376 56.7997L62.3157 54.6334C61.5185 52.7594 61.7111 50.6252 62.8203 49.0612C66.8791 43.3392 79.8221 47.5986 80.9402 47.9816C81.691 48.044 82.0441 49.3622 82.522 51.4892C82.6647 52.1216 82.8109 52.7754 82.9126 52.9732L84.8171 56.6963C85.0989 57.2486 84.8849 57.9362 84.341 58.2301L82.6932 59.1226L81.8604 64.3511C81.7053 65.3309 80.9081 66.0933 79.9238 66.2056L76.1183 66.6384C75.6261 66.6937 75.2284 67.0589 75.1268 67.5452L73.2347 77.2379C73.199 77.4232 73.035 77.5585 72.8459 77.5585L72.8477 77.5568ZM58.3728 74.0135C61.934 75.7272 65.8894 76.6625 69.8393 76.7213L72.5214 76.7605L74.351 67.3884C74.5222 66.5618 75.1963 65.9472 76.0291 65.851L79.8346 65.4182C80.4659 65.3469 80.9777 64.857 81.0776 64.2264L81.9389 58.818C81.9585 58.6969 82.0477 58.5704 82.1564 58.5116L83.9647 57.5336C84.1341 57.4427 84.2001 57.2272 84.1127 57.0562L82.2082 53.333C82.0691 53.0605 81.9424 52.5207 81.7499 51.6638C81.5555 50.8052 81.1578 49.0344 80.8368 48.7708C80.8029 48.7672 80.7708 48.7619 80.7387 48.7494C80.605 48.7031 67.2785 44.148 63.4677 49.519C62.5172 50.8586 62.3549 52.7006 63.0468 54.3235L63.9688 56.4897C64.9977 58.9071 65.1582 61.5311 64.4217 63.8808C64.1489 64.7519 63.7655 65.5856 63.2858 66.3623L58.3746 74.0117L58.3728 74.0135Z" fill="black"/>
<path d="M70.1867 54.4086C69.484 52.6628 68.3855 52.009 68.5906 51.0168C68.7154 50.4182 69.2326 50.0423 69.5286 49.8285C70.9945 48.7668 72.9204 49.4153 76.7901 50.1439C81.5943 51.0488 82.1418 51.1913 83.0477 50.8333C85.3517 49.923 86.6624 47.0905 86.7622 44.7604C86.7908 44.1066 86.8478 40.6364 83.9001 38.8461C81.7708 37.5528 78.9212 37.6508 76.6189 39.083C76.4174 38.4096 75.9984 37.4601 75.0835 36.9934C72.9133 35.8854 69.6766 38.3705 68.5443 39.2398C67.4975 40.0432 65.6304 41.7213 64.2929 44.6731C63.8649 44.4344 62.2618 43.6043 60.5141 44.1619C57.9159 44.992 57.2757 48.1647 57.2204 48.4658C56.5695 51.9716 59.4549 55.0303 61.6323 57.3408C62.8324 58.6145 63.4637 59.0991 64.1681 59.5694C64.5854 59.8473 65.1239 59.8669 65.5626 59.6264C65.5697 59.6228 65.5787 59.6175 65.5858 59.6139C66.1618 59.2968 66.3544 58.5593 66.0084 57.9999L65.8979 57.8218C65.4824 57.152 65.1988 56.402 65.1114 55.6164C65.0419 54.9911 65.0918 54.3338 65.4948 53.9971C66.144 53.452 67.2496 53.8118 67.4083 53.8635C68.2179 54.1271 68.7261 54.7275 69.0382 55.2975C69.3735 55.9085 70.4952 55.1817 70.1849 54.4068L70.1867 54.4086Z" fill="black"/>
<path d="M32.83 40.848C32.6944 40.848 32.5571 40.8391 32.4198 40.8213C30.6989 40.6022 29.456 39.0381 29.6486 37.3368C29.7413 36.5156 30.1497 35.7834 30.7988 35.2739C31.4586 34.7555 32.2878 34.5293 33.1295 34.638C34.8504 34.8571 36.0934 36.4212 35.9008 38.1224C35.808 38.9437 35.3997 39.6758 34.7505 40.1853C34.1977 40.6182 33.5272 40.848 32.83 40.848ZM30.435 37.4259C30.2906 38.6996 31.2268 39.8718 32.5197 40.0374C33.1492 40.1176 33.768 39.9502 34.2601 39.5636C34.7416 39.1859 35.0448 38.6426 35.1126 38.0351C35.257 36.7614 34.3208 35.5892 33.0279 35.4236C32.3984 35.3434 31.7796 35.5109 31.2874 35.8974C30.8059 36.2751 30.5028 36.8184 30.435 37.4259Z" fill="black"/>
<path d="M20.8694 46.6751C20.7998 46.6751 20.7321 46.6573 20.6679 46.6199L18.0251 45.0576C17.836 44.9472 17.7736 44.7031 17.886 44.5161C17.9965 44.3272 18.2408 44.2649 18.4281 44.3771L21.0709 45.9394C21.2599 46.0499 21.3223 46.2939 21.21 46.481C21.1369 46.6057 21.0049 46.6751 20.8694 46.6751Z" fill="black"/>
<path d="M27.0256 50.3148C26.9561 50.3148 26.8883 50.297 26.8241 50.2596L24.1813 48.6973C23.9923 48.585 23.9299 48.3428 24.0422 48.1557C24.1528 47.9669 24.3971 47.9045 24.5843 48.0168L27.2271 49.5791C27.4162 49.6895 27.4786 49.9336 27.3662 50.1206C27.2931 50.2453 27.1612 50.3148 27.0256 50.3148Z" fill="black"/>
<path d="M20.0215 52.1103C19.9537 52.1103 19.8842 52.0925 19.82 52.0551C19.631 51.9447 19.5685 51.7006 19.6809 51.5136L21.2448 48.8735C21.3572 48.6847 21.5979 48.6223 21.7869 48.7345C21.976 48.845 22.0384 49.089 21.926 49.2761L20.3621 51.9162C20.2872 52.0409 20.1552 52.1103 20.0197 52.1103H20.0215Z" fill="black"/>
<path d="M23.666 45.957C23.5983 45.957 23.5287 45.9392 23.4645 45.9018C23.2755 45.7913 23.2131 45.5473 23.3254 45.3602L24.8894 42.7202C25.0017 42.5313 25.2442 42.469 25.4315 42.5812C25.6205 42.6917 25.6829 42.9357 25.5706 43.1228L24.0066 45.7628C23.9335 45.8875 23.7998 45.957 23.6642 45.957H23.666Z" fill="black"/>
<path d="M298.163 325.604H159.595C151.276 325.604 145.054 317.975 146.729 309.832L167.752 207.699C169.519 199.111 177.086 192.947 185.859 192.947H304.717L298.163 325.606V325.604Z" fill="white"/>
<path d="M298.163 326H159.595C155.511 326 151.689 324.186 149.109 321.024C146.527 317.86 145.517 313.751 146.341 309.751L167.364 207.619C169.162 198.888 176.941 192.55 185.861 192.55H304.718C304.827 192.55 304.93 192.594 305.005 192.673C305.08 192.751 305.119 192.856 305.114 192.965L298.56 325.624C298.55 325.834 298.377 326 298.164 326H298.163ZM185.859 193.341C177.313 193.341 169.861 199.412 168.14 207.777L147.117 309.91C146.341 313.676 147.292 317.543 149.722 320.522C152.151 323.498 155.75 325.205 159.593 325.205H297.783L304.297 193.339H185.857L185.859 193.341Z" fill="black"/>
<path d="M315.905 325.604H289.015C280.696 325.604 274.474 317.974 276.149 309.831L299.303 197.338C299.829 194.78 302.083 192.945 304.695 192.945H311.611C314.478 192.945 316.865 195.144 317.098 197.999L326.569 314.039C327.077 320.267 322.157 325.602 315.905 325.602V325.604Z" fill="white"/>
<path d="M315.905 325.999H289.015C284.931 325.999 281.109 324.186 278.529 321.024C275.947 317.86 274.937 313.75 275.761 309.751L298.915 197.258C299.477 194.529 301.908 192.548 304.695 192.548H311.61C314.66 192.548 317.244 194.928 317.492 197.965L326.963 314.005C327.214 317.085 326.157 320.153 324.061 322.424C321.966 324.694 318.993 325.996 315.905 325.996V325.999ZM304.695 193.341C302.282 193.341 300.178 195.054 299.691 197.418L276.537 309.911C275.761 313.677 276.712 317.545 279.142 320.523C281.571 323.5 285.17 325.207 289.013 325.207H315.903C318.813 325.207 321.504 324.029 323.478 321.89C325.424 319.78 326.406 316.93 326.173 314.071L316.702 198.031C316.488 195.4 314.25 193.341 311.61 193.341H304.695Z" fill="black"/>
<path d="M307.334 322.007H289.013C286.135 322.007 283.44 320.728 281.621 318.499C279.802 316.269 279.093 313.374 279.672 310.556L287.272 273.629C287.317 273.415 287.526 273.276 287.74 273.321C287.954 273.365 288.093 273.574 288.048 273.788L280.448 310.715C279.916 313.298 280.567 315.954 282.235 317.997C283.902 320.042 286.372 321.214 289.011 321.214H307.333C307.552 321.214 307.728 321.391 307.728 321.61C307.728 321.829 307.55 322.005 307.333 322.005L307.334 322.007Z" fill="black"/>
<path d="M315.906 322.007C315.686 322.007 315.51 321.831 315.51 321.612C315.51 321.392 315.686 321.216 315.906 321.216C317.689 321.216 319.337 320.495 320.544 319.183C321.753 317.872 322.338 316.173 322.193 314.397L320.036 287.952C320.018 287.734 320.18 287.542 320.398 287.524C320.612 287.504 320.808 287.668 320.824 287.886L322.982 314.331C323.146 316.33 322.486 318.243 321.125 319.718C319.765 321.193 317.91 322.005 315.904 322.005L315.906 322.007Z" fill="black"/>
<path d="M314.421 214.723C314.216 214.723 314.043 214.566 314.027 214.36L313.578 208.848C313.56 208.631 313.722 208.438 313.94 208.421C314.159 208.401 314.35 208.565 314.366 208.782L314.815 214.294C314.833 214.511 314.671 214.704 314.453 214.721C314.442 214.721 314.432 214.721 314.421 214.721V214.723Z" fill="black"/>
<path d="M296.866 229.388C296.839 229.388 296.812 229.384 296.786 229.379C296.572 229.334 296.432 229.126 296.477 228.912L302.827 198.063C303.009 197.182 303.794 196.542 304.694 196.542H311.61C312.596 196.542 313.429 197.312 313.509 198.291L313.803 201.9C313.821 202.118 313.659 202.31 313.441 202.328C313.226 202.348 313.033 202.184 313.015 201.966L312.721 198.357C312.675 197.784 312.186 197.335 311.612 197.335H304.696C304.17 197.335 303.712 197.709 303.605 198.224L297.255 229.073C297.215 229.26 297.051 229.39 296.868 229.39L296.866 229.388Z" fill="black"/>
<path d="M279.283 246.955H170.788C170.569 246.955 170.393 246.778 170.393 246.559C170.393 246.34 170.569 246.164 170.788 246.164H279.283C282.329 246.164 284.947 244.096 285.649 241.133L295.213 200.784C295.263 200.572 295.477 200.44 295.689 200.49C295.902 200.54 296.034 200.754 295.984 200.966L286.42 241.315C285.633 244.635 282.698 246.955 279.283 246.955Z" fill="black"/>
<path d="M237.408 246.56L234.369 258.812C233.878 260.886 232.026 262.348 229.895 262.348H208.406C206.066 262.348 204.372 260.12 204.998 257.866L208.146 246.56H237.408Z" fill="white"/>
<path d="M229.896 262.744H208.407C207.168 262.744 206.026 262.179 205.276 261.192C204.525 260.205 204.284 258.955 204.618 257.759L207.765 246.452C207.813 246.281 207.968 246.162 208.147 246.162H237.409C237.53 246.162 237.646 246.217 237.721 246.314C237.795 246.41 237.822 246.534 237.794 246.652L234.755 258.905C234.22 261.162 232.221 262.742 229.896 262.742V262.744ZM208.448 246.955L205.383 257.971C205.117 258.924 205.309 259.924 205.909 260.713C206.508 261.5 207.419 261.953 208.409 261.953H229.897C231.854 261.953 233.535 260.624 233.986 258.721L236.904 246.957H208.45L208.448 246.955Z" fill="black"/>
<path d="M269.383 315.739H154.124C153.905 315.739 153.729 315.563 153.729 315.344C153.729 315.125 153.905 314.948 154.124 314.948H269.383C269.602 314.948 269.779 315.126 269.779 315.344C269.779 315.561 269.601 315.739 269.383 315.739Z" fill="black"/>
<path d="M213.238 188.311H204.241C201.81 188.311 199.84 190.281 199.84 192.709H217.639C217.639 190.279 215.668 188.311 213.238 188.311Z" fill="white"/>
<path d="M217.638 193.104H199.839C199.62 193.104 199.443 192.926 199.443 192.709C199.443 190.065 201.596 187.915 204.24 187.915H213.237C215.882 187.915 218.034 190.065 218.034 192.709C218.034 192.928 217.857 193.104 217.638 193.104ZM200.255 192.313H217.223C217.023 190.291 215.313 188.706 213.237 188.706H204.24C202.166 188.706 200.454 190.291 200.255 192.313Z" fill="black"/>
<path d="M285.343 188.311H276.346C273.916 188.311 271.945 190.281 271.945 192.709H289.744C289.744 190.279 287.774 188.311 285.343 188.311Z" fill="black"/>
<path d="M289.746 193.104H271.947C271.727 193.104 271.551 192.926 271.551 192.709C271.551 190.065 273.703 187.915 276.348 187.915H285.344C287.989 187.915 290.141 190.065 290.141 192.709C290.141 192.928 289.963 193.104 289.746 193.104ZM272.36 192.313H289.328C289.129 190.291 287.418 188.706 285.343 188.706H276.346C274.272 188.706 272.56 190.291 272.36 192.313Z" fill="black"/>
<path d="M282.994 188.073L284.443 179.467C285.472 173.364 281.355 168.415 275.247 168.415H221.297C215.19 168.415 209.406 173.364 208.378 179.467L206.928 188.073H211.056L212.185 181.375C212.986 176.624 217.487 172.774 222.241 172.774H272.836C277.588 172.774 280.795 176.626 279.994 181.375L278.865 188.073H282.994Z" fill="white"/>
<path d="M282.995 188.468H278.867C278.751 188.468 278.641 188.417 278.564 188.328C278.489 188.239 278.457 188.121 278.477 188.007L279.605 181.309C279.976 179.105 279.464 177.042 278.161 175.505C276.886 174 274.996 173.17 272.84 173.17H222.244C217.683 173.17 213.348 176.88 212.579 181.441L211.45 188.139C211.418 188.33 211.252 188.468 211.06 188.468H206.931C206.815 188.468 206.705 188.417 206.628 188.328C206.553 188.239 206.521 188.121 206.541 188.007L207.991 179.401C209.048 173.125 215.019 168.02 221.301 168.02H275.251C278.293 168.02 280.966 169.199 282.78 171.34C284.629 173.524 285.36 176.433 284.837 179.533L283.388 188.139C283.356 188.33 283.19 188.468 282.997 188.468H282.995ZM279.334 187.678H282.66L284.055 179.401C284.538 176.537 283.869 173.854 282.173 171.851C280.513 169.89 278.054 168.81 275.249 168.81H221.299C215.386 168.81 209.767 173.62 208.77 179.533L207.399 187.678H210.724L211.796 181.309C212.625 176.383 217.312 172.377 222.243 172.377H272.838C275.233 172.377 277.337 173.305 278.765 174.992C280.221 176.713 280.797 179.002 280.386 181.439L279.336 187.676L279.334 187.678Z" fill="black"/>
<path d="M272.569 164.853H225.178C223.268 164.853 221.46 166.401 221.137 168.308L220.44 172.445C220.119 174.353 221.406 175.901 223.316 175.901H270.707C272.617 175.901 274.425 174.353 274.748 172.445L275.445 168.308C275.766 166.401 274.478 164.853 272.569 164.853Z" fill="white"/>
<path d="M270.707 176.296H223.316C222.284 176.296 221.374 175.894 220.754 175.162C220.123 174.417 219.873 173.428 220.049 172.379L220.747 168.243C221.098 166.155 223.086 164.457 225.178 164.457H272.569C273.601 164.457 274.511 164.86 275.131 165.592C275.763 166.336 276.012 167.325 275.836 168.374L275.138 172.511C274.787 174.599 272.799 176.296 270.707 176.296ZM225.178 165.248C223.455 165.248 221.818 166.65 221.53 168.374L220.832 172.511C220.695 173.327 220.882 174.087 221.36 174.65C221.827 175.201 222.521 175.505 223.318 175.505H270.709C272.431 175.505 274.069 174.103 274.357 172.379L275.055 168.243C275.192 167.427 275.005 166.666 274.527 166.103C274.06 165.553 273.366 165.248 272.569 165.248H225.178Z" fill="black"/>
<path d="M243.535 176.296H223.316C222.284 176.296 221.374 175.894 220.754 175.162C220.123 174.417 219.873 173.428 220.049 172.379L220.747 168.243C221.098 166.155 223.086 164.457 225.178 164.457H240.985C241.204 164.457 241.381 164.635 241.381 164.853C241.381 165.07 241.204 165.248 240.985 165.248H225.178C223.455 165.248 221.818 166.65 221.53 168.374L220.832 172.511C220.695 173.327 220.882 174.087 221.36 174.65C221.827 175.201 222.521 175.505 223.318 175.505H243.537C243.756 175.505 243.933 175.684 243.933 175.901C243.933 176.118 243.755 176.296 243.537 176.296H243.535Z" fill="black"/>
<path d="M288.76 315.739C288.623 315.739 288.489 315.668 288.416 315.54C288.307 315.349 288.373 315.108 288.564 315L306.939 304.536V200.873C306.939 200.654 307.117 200.478 307.335 200.478C307.552 200.478 307.73 200.654 307.73 200.873V304.765C307.73 304.908 307.654 305.04 307.531 305.109L288.956 315.687C288.894 315.723 288.828 315.739 288.76 315.739Z" fill="black"/>
<path d="M288.035 190.354C288.035 190.354 296.302 193.433 299.544 190.841C302.786 188.249 294.519 183.873 292.574 184.198C290.628 184.522 288.035 190.354 288.035 190.354Z" fill="black"/>
<path d="M246.486 256.411L254.267 270.022L258.482 264.189L251.674 250.903L246.486 256.411Z" fill="white"/>
<path d="M254.266 270.417C254.266 270.417 254.252 270.417 254.245 270.417C254.111 270.41 253.988 270.335 253.922 270.218L246.14 256.608C246.054 256.456 246.076 256.267 246.195 256.139L251.383 250.631C251.47 250.536 251.598 250.492 251.727 250.51C251.855 250.528 251.966 250.606 252.025 250.722L258.833 264.008C258.901 264.139 258.889 264.3 258.801 264.419L254.585 270.251C254.511 270.355 254.391 270.415 254.264 270.415L254.266 270.417ZM246.974 256.47L254.305 269.291L258.018 264.154L251.575 251.584L246.974 256.47Z" fill="black"/>
<path d="M251.573 267.946C253.625 272.173 258.818 282.427 263.824 287.342C265.043 288.541 267.107 287.983 267.545 286.33C269.111 280.411 270.154 268.078 264.319 258.357C264.319 258.357 261.545 258.032 256.357 259.005L257.511 263.865L256.874 263.41C255.915 262.726 254.613 262.783 253.718 263.549L252.223 264.83C251.323 265.602 251.057 266.881 251.574 267.946H251.573Z" fill="black"/>
<path d="M264.642 285.971C264.596 285.971 264.548 285.962 264.501 285.946C264.296 285.869 264.193 285.639 264.271 285.436C268.703 273.734 262.72 259.951 262.657 259.814C262.568 259.614 262.659 259.381 262.861 259.292C263.06 259.203 263.294 259.294 263.383 259.495C263.445 259.636 269.557 273.716 265.013 285.718C264.952 285.876 264.803 285.974 264.642 285.974V285.971Z" fill="white"/>
<path d="M254.591 274.236C254.461 274.236 254.334 274.172 254.258 274.056C254.138 273.873 254.19 273.627 254.374 273.51L258.265 270.987C258.448 270.868 258.694 270.919 258.812 271.103C258.932 271.286 258.88 271.532 258.696 271.65L254.805 274.172C254.739 274.215 254.664 274.236 254.589 274.236H254.591Z" fill="white"/>
<path d="M256.536 277.689C256.417 277.689 256.299 277.635 256.223 277.534C256.089 277.361 256.123 277.111 256.296 276.978L259.862 274.242C260.035 274.108 260.285 274.14 260.419 274.315C260.552 274.487 260.518 274.737 260.346 274.87L256.779 277.607C256.708 277.662 256.622 277.689 256.538 277.689H256.536Z" fill="white"/>
<path d="M221.844 256.735C221.844 257.06 214.711 272.613 214.711 272.613L222.816 273.262L228.328 259.976L221.844 256.735Z" fill="white"/>
<path d="M222.817 273.657C222.806 273.657 222.795 273.657 222.785 273.657L214.68 273.008C214.551 272.998 214.435 272.924 214.369 272.814C214.303 272.702 214.296 272.566 214.351 272.449C217.105 266.444 221.251 257.326 221.454 256.667C221.474 256.557 221.54 256.459 221.636 256.398C221.754 256.325 221.898 256.32 222.021 256.38L228.505 259.621C228.691 259.713 228.773 259.934 228.694 260.127L223.182 273.413C223.12 273.56 222.975 273.657 222.817 273.657ZM215.307 272.264L222.562 272.844L227.822 260.166L222.053 257.284C221.615 258.363 220.158 261.686 215.309 272.265L215.307 272.264Z" fill="black"/>
<path d="M222.17 269.373C222.17 269.373 220.549 265.484 216.333 267.43C216.333 267.43 208.595 278.599 205.721 287.822C204.907 290.43 207.588 292.781 210.079 291.657C215.91 289.026 225.048 283.503 230.276 273.264C230.276 273.264 228.655 269.051 226.061 267.107L222.17 269.375V269.373Z" fill="black"/>
<path d="M208.097 289.239C207.764 289.239 207.568 289.214 207.519 289.207C207.304 289.175 207.154 288.973 207.186 288.758C207.218 288.542 207.418 288.393 207.635 288.425C207.726 288.437 216.338 289.431 228.009 273.354C228.138 273.178 228.386 273.137 228.562 273.267C228.739 273.395 228.78 273.643 228.65 273.819C218.242 288.154 210.271 289.241 208.097 289.241V289.239Z" fill="white"/>
<path d="M214.71 280.462C214.642 280.462 214.572 280.444 214.51 280.408L210.619 278.141C210.43 278.03 210.365 277.788 210.476 277.599C210.587 277.41 210.829 277.346 211.018 277.456L214.909 279.724C215.098 279.835 215.162 280.077 215.052 280.266C214.979 280.392 214.845 280.462 214.71 280.462Z" fill="white"/>
<path d="M216.656 277.546C216.592 277.546 216.527 277.53 216.468 277.498L212.253 275.23C212.06 275.127 211.989 274.886 212.092 274.694C212.196 274.502 212.436 274.43 212.629 274.534L216.845 276.801C217.037 276.905 217.109 277.145 217.005 277.338C216.934 277.469 216.797 277.546 216.656 277.546Z" fill="white"/>
<path d="M263.345 178.319C263.345 178.319 242.213 182.091 226.984 198.05C223.141 202.078 221.782 207.877 223.432 213.194C226.815 224.102 234.18 244.023 246.486 259.005L255.889 250.905C255.889 250.905 253.619 232.111 247.46 220.446C241.298 208.782 277.289 183.507 277.289 183.507L263.347 178.323L263.345 178.319Z" fill="#B9FF66"/>
<path d="M246.486 259.401C246.475 259.401 246.463 259.401 246.452 259.401C246.345 259.392 246.247 259.34 246.179 259.258C233.769 244.15 226.363 223.986 223.052 213.314C221.361 207.861 222.757 201.909 226.697 197.78C241.84 181.911 263.063 177.97 263.275 177.933C263.345 177.92 263.416 177.927 263.484 177.951L277.426 183.135C277.563 183.186 277.661 183.309 277.681 183.455C277.7 183.601 277.636 183.746 277.515 183.829C277.158 184.081 241.88 209.035 247.809 220.261C253.933 231.856 256.258 250.668 256.281 250.857C256.297 250.989 256.247 251.119 256.148 251.204L246.744 259.305C246.671 259.367 246.58 259.401 246.486 259.401ZM263.311 178.729C261.685 179.046 241.685 183.218 227.271 198.323C223.53 202.244 222.203 207.896 223.81 213.077C227.08 223.621 234.365 243.471 246.536 258.441L255.468 250.745C255.195 248.657 252.816 231.441 247.108 220.632C241.232 209.505 271.555 187.129 276.448 183.617L263.311 178.733V178.729Z" fill="black"/>
<path d="M219.25 259.652L230.274 262.892C230.274 262.892 250.377 220.443 256.212 214.286C262.049 208.13 273.396 198.084 285.392 194.52C297.388 190.955 297.388 181.882 297.388 181.882L276.962 176.05C276.962 176.05 248.43 188.363 239.028 202.297C229.625 216.232 219.25 259.652 219.25 259.652Z" fill="#B9FF66"/>
<path d="M230.274 263.287C230.237 263.287 230.199 263.282 230.162 263.271L219.138 260.031C218.936 259.972 218.815 259.764 218.865 259.559C218.968 259.124 229.365 215.909 238.7 202.076C248.059 188.206 276.52 175.811 276.807 175.688C276.891 175.652 276.985 175.645 277.073 175.67L297.498 181.502C297.668 181.551 297.786 181.705 297.786 181.884C297.786 181.978 297.645 191.293 285.506 194.9C272.11 198.88 259.918 210.955 256.501 214.56C250.775 220.601 230.834 262.639 230.633 263.063C230.567 263.204 230.424 263.289 230.274 263.289V263.287ZM219.724 259.379L230.062 262.418C232.029 258.276 250.309 219.942 255.925 214.015C259.377 210.374 271.696 198.178 285.279 194.142C295.651 191.06 296.84 183.735 296.976 182.178L276.991 176.472C274.895 177.394 248.266 189.317 239.356 202.52C230.556 215.56 220.755 255.145 219.724 259.379Z" fill="black"/>
<path d="M313.926 148.507C308.413 137.489 299.335 135.869 299.335 135.869L283.772 134.573C278.906 134.243 273.732 137.248 271.81 141.728L257.51 175.077C257.51 175.077 260.427 182.854 273.397 184.149C286.367 185.446 295.283 184.636 299.497 189.82C302.275 193.238 302.188 170.441 300.59 152.412L313.926 148.505V148.507Z" fill="white"/>
<path d="M300.021 190.562C299.786 190.562 299.497 190.448 299.19 190.071C296.03 186.184 289.931 185.769 281.489 185.191C279.046 185.024 276.277 184.835 273.358 184.545C260.293 183.239 257.262 175.543 257.139 175.217C257.103 175.121 257.105 175.016 257.146 174.922L271.446 141.573C273.4 137.015 278.709 133.835 283.799 134.179L299.368 135.476C299.499 135.497 308.743 137.264 314.28 148.33C314.332 148.435 314.335 148.558 314.289 148.665C314.243 148.772 314.15 148.854 314.038 148.886L301.014 152.702C302.131 165.526 303.053 189.394 300.312 190.505C300.228 190.539 300.132 190.562 300.023 190.562H300.021ZM257.941 175.078C258.415 176.113 261.843 182.6 273.436 183.757C276.343 184.048 279.105 184.237 281.543 184.402C290.185 184.992 296.428 185.418 299.805 189.572C299.95 189.75 300.028 189.77 300.028 189.77C300.062 189.752 301.26 189.144 301.309 177.143C301.337 169.878 300.922 160.647 300.194 152.449C300.178 152.26 300.296 152.087 300.478 152.034L313.355 148.263C307.975 137.925 299.352 136.275 299.265 136.261L283.738 134.97C278.977 134.647 274.001 137.622 272.173 141.887L257.939 175.08L257.941 175.078Z" fill="black"/>
<path d="M272.303 177.225L279.436 173.985L284.948 176.252C284.948 176.252 314.821 173.26 301.6 152.118C301.543 152.027 311.686 149.164 311.686 149.164C311.686 149.164 323.738 177.873 285.597 178.522C285.597 178.522 283.652 179.17 281.059 177.873C278.464 176.577 273.926 179.17 272.305 177.225H272.303Z" fill="white"/>
<path d="M284.299 179.081C283.438 179.081 282.243 178.909 280.88 178.228C279.78 177.678 278.214 177.911 276.702 178.136C274.801 178.419 273.006 178.686 272 177.478C271.921 177.384 271.891 177.257 271.918 177.136C271.944 177.015 272.028 176.915 272.141 176.864L279.274 173.623C279.374 173.579 279.488 173.577 279.589 173.618L285.007 175.848C286.289 175.699 299.819 173.946 303.596 166.253C305.458 162.461 304.675 157.776 301.267 152.326C301.201 152.221 301.188 152.089 301.233 151.972C301.328 151.726 301.351 151.669 311.58 148.781C311.774 148.728 311.976 148.824 312.052 149.009C312.099 149.122 316.707 160.352 311.073 168.972C306.907 175.346 298.357 178.691 285.66 178.916C285.49 178.964 285.007 179.08 284.299 179.08V179.081ZM279.135 177.095C279.887 177.095 280.602 177.202 281.235 177.519C283.634 178.718 285.455 178.152 285.474 178.144C285.512 178.132 285.553 178.125 285.592 178.125C298.041 177.913 306.39 174.688 310.41 168.539C315.289 161.075 312.143 151.516 311.448 149.642C308.149 150.573 303.589 151.881 302.194 152.323C305.54 157.845 306.249 162.648 304.306 166.604C300.163 175.036 285.606 176.586 284.989 176.648C284.923 176.653 284.859 176.644 284.798 176.62L279.445 174.416L273.047 177.323C273.869 177.756 275.195 177.56 276.585 177.353C277.439 177.227 278.309 177.097 279.135 177.097V177.095Z" fill="black"/>
<path d="M245.116 179.797H273.238L252.39 147.753C251.739 146.752 250.603 146.145 249.383 146.145H226.561C225.111 146.145 224.23 147.694 225.004 148.884L245.116 179.797Z" fill="black"/>
<path d="M239.508 157.38C240.422 158.784 242.387 159.924 243.897 159.924C245.408 159.924 245.891 158.785 244.978 157.38C244.065 155.976 242.1 154.836 240.589 154.836C239.079 154.836 238.595 155.974 239.508 157.38Z" fill="white"/>
<path d="M243.899 160.319C242.244 160.319 240.17 159.124 239.177 157.595C238.627 156.751 238.503 155.914 238.836 155.301C239.137 154.747 239.76 154.44 240.589 154.44C242.242 154.44 244.318 155.636 245.311 157.164C245.86 158.009 245.985 158.846 245.652 159.459C245.35 160.013 244.728 160.319 243.899 160.319ZM240.589 155.233C240.065 155.233 239.688 155.392 239.531 155.679C239.341 156.029 239.453 156.571 239.84 157.164C240.673 158.445 242.531 159.526 243.897 159.526C244.421 159.526 244.797 159.368 244.953 159.081C245.143 158.73 245.031 158.189 244.644 157.595C243.811 156.314 241.953 155.233 240.587 155.233H240.589Z" fill="black"/>
<path d="M290.358 182.206H247.095C245.949 182.206 245.018 181.276 245.018 180.131V179.589H292.434V180.131C292.434 181.276 291.503 182.206 290.356 182.206H290.358Z" fill="black"/>
<path d="M302.253 60.0449C314.158 56.2878 329.555 73.3592 326.454 87.4004C325.598 91.2732 326.545 97.1305 322.297 99.27C314.763 103.064 310.024 98.4701 308.088 101.522C306.41 104.167 312.371 107.979 311.654 113.511C310.588 121.73 295.822 125.697 294.146 126.148C292.894 126.485 275.272 130.983 266.91 121.611C264.897 119.354 262.256 114.987 263.668 112.214C265.014 109.568 269.15 110.137 270.152 107.354C271.021 104.942 268.251 103.593 268.531 100.873C269.071 95.6287 279.914 95.358 281.176 89.8552C282.186 85.4568 275.885 82.8702 276.961 78.5146C277.829 75.0017 282.362 74.9073 289.606 70.4145C298.278 65.0346 297.741 61.4682 302.251 60.0449H302.253Z" fill="black"/>
<path d="M288.962 133.601C288.673 133.457 284.771 128.858 282.488 126.148C282.661 125.396 282.636 125.156 282.574 124.016C282.574 124.016 283.756 122.831 283.282 121.294C282.731 119.507 281.033 120.941 281.033 120.941C281.033 120.941 280.247 119.567 277.29 121.935C274.333 124.304 271.209 121.422 271.209 121.422C271.209 121.422 271.209 123.196 272.773 125.352C273.634 126.542 273.78 128.113 273.821 129.581L275.478 129.342C276.391 130.422 277.069 130.951 278.321 131.469C278.321 131.469 279.31 131.287 280.339 130.438L282.155 134.571L280.304 135.543C280.304 135.543 279.885 138.135 284.749 138.784C289.612 139.432 293.504 135.543 293.504 135.543C293.504 135.543 290.909 134.571 288.965 133.6L288.962 133.601Z" fill="white"/>
<path d="M285.861 139.256C285.478 139.256 285.089 139.231 284.691 139.179C282.621 138.903 281.187 138.249 280.433 137.236C279.775 136.352 279.902 135.518 279.907 135.485C279.927 135.362 280.003 135.255 280.114 135.198L281.638 134.398L280.173 131.061C279.238 131.703 278.427 131.858 278.388 131.865C278.313 131.879 278.234 131.87 278.165 131.842C276.945 131.337 276.226 130.821 275.315 129.772L273.874 129.978C273.762 129.994 273.649 129.962 273.562 129.889C273.476 129.816 273.425 129.711 273.421 129.597C273.38 128.158 273.236 126.675 272.447 125.589C270.83 123.355 270.809 121.504 270.809 121.427C270.809 121.271 270.901 121.128 271.046 121.066C271.19 121.002 271.358 121.03 271.474 121.137C271.591 121.246 274.388 123.756 277.038 121.632C278.445 120.506 279.604 120.018 280.483 120.186C280.736 120.234 280.927 120.33 281.066 120.43C281.428 120.195 282.063 119.881 282.671 120.057C283.136 120.193 283.468 120.572 283.657 121.182C284.103 122.624 283.299 123.773 282.976 124.162V124.18C283.028 125.086 283.045 125.418 282.915 126.047C288.117 132.217 289.011 133.137 289.162 133.265C291.063 134.213 293.611 135.169 293.636 135.18C293.763 135.228 293.856 135.335 293.884 135.467C293.913 135.599 293.872 135.736 293.777 135.83C293.626 135.982 290.289 139.261 285.859 139.261L285.861 139.256ZM280.69 135.789C280.704 136.003 280.779 136.379 281.087 136.785C281.706 137.597 282.99 138.153 284.797 138.394C288.461 138.882 291.6 136.639 292.75 135.681C291.858 135.33 290.154 134.64 288.782 133.954C288.65 133.888 288.376 133.751 282.184 126.401C282.104 126.307 282.074 126.178 282.1 126.057C282.252 125.402 282.239 125.197 282.186 124.215L282.175 124.035C282.17 123.923 282.211 123.814 282.291 123.734C282.332 123.693 283.297 122.692 282.901 121.41C282.796 121.069 282.644 120.868 282.45 120.811C282.082 120.704 281.508 121.055 281.287 121.242C281.198 121.319 281.079 121.349 280.963 121.329C280.847 121.31 280.745 121.239 280.688 121.135C280.688 121.135 280.583 120.993 280.303 120.95C279.941 120.895 279.097 120.991 277.537 122.241C275.286 124.044 272.94 123.05 271.745 122.3C271.912 122.983 272.282 123.998 273.093 125.117C273.92 126.259 274.134 127.698 274.2 129.125L275.42 128.95C275.556 128.931 275.691 128.982 275.779 129.087C276.649 130.115 277.264 130.591 278.352 131.054C278.618 130.983 279.342 130.746 280.083 130.133C280.18 130.053 280.308 130.025 280.428 130.053C280.549 130.082 280.649 130.165 280.699 130.279L282.514 134.412C282.598 134.603 282.519 134.825 282.336 134.922L280.69 135.786V135.789Z" fill="black"/>
<path d="M280.334 130.837C280.225 130.837 280.118 130.792 280.039 130.707C279.893 130.545 279.906 130.293 280.068 130.147L280.603 129.666C280.765 129.52 281.017 129.533 281.163 129.695C281.309 129.857 281.297 130.108 281.134 130.254L280.599 130.735C280.524 130.803 280.428 130.837 280.334 130.837Z" fill="black"/>
<path d="M123.841 77.4385L106.439 117.693L121.826 112.62L130.316 126.438L140.755 83.4365L123.841 77.4385Z" stroke="white" stroke-miterlimit="10"/>
<path d="M130.314 126.833C130.178 126.833 130.05 126.764 129.977 126.644L121.651 113.095L106.562 118.069C106.414 118.117 106.252 118.076 106.145 117.96C106.04 117.844 106.011 117.679 106.074 117.536L123.477 77.2813C123.559 77.0907 123.776 76.9963 123.973 77.0657L140.887 83.062C141.078 83.1297 141.188 83.331 141.14 83.5287L130.699 126.53C130.662 126.685 130.533 126.803 130.376 126.828C130.355 126.832 130.335 126.833 130.314 126.833ZM121.825 112.224C121.961 112.224 122.089 112.293 122.162 112.413L130.153 125.419L140.286 83.6891L124.058 77.9351L107.153 117.039L121.701 112.242C121.742 112.227 121.783 112.222 121.825 112.222V112.224Z" fill="black"/>
<path d="M139.168 84.9285L151.075 127.134L159.811 113.497L175.119 118.865L156.077 78.918L139.168 84.9285Z" stroke="white" stroke-miterlimit="10"/>
<path d="M151.075 127.53C151.056 127.53 151.036 127.53 151.016 127.526C150.863 127.503 150.736 127.393 150.694 127.241L138.787 85.0358C138.73 84.8345 138.838 84.6261 139.035 84.5548L155.944 78.5443C156.134 78.4766 156.347 78.5639 156.434 78.7474L175.476 118.696C175.545 118.84 175.52 119.011 175.413 119.13C175.306 119.25 175.139 119.293 174.987 119.239L159.974 113.975L151.407 127.348C151.334 127.462 151.207 127.53 151.073 127.53H151.075ZM139.65 85.1783L151.216 126.178L159.476 113.284C159.576 113.129 159.769 113.063 159.942 113.123L174.352 118.177L155.872 79.4101L139.65 85.1765V85.1783Z" fill="black"/>
<path d="M173.77 67.1451L169.019 72.9045L171.211 80.0426L164.609 83.5378L163.896 90.9681L156.459 91.6824L152.962 98.279L145.822 96.0879L140.059 100.837L134.295 96.0879L127.153 98.279L123.656 91.6807L116.22 90.9681L115.506 83.536L108.905 80.0426L111.096 72.9045L106.346 67.1451L111.096 61.384L108.905 54.2477L115.506 50.7525L116.22 43.3204L123.656 42.6078L127.153 36.0095L134.295 38.2006L140.059 33.4531L145.822 38.2006L152.962 36.0095L156.461 42.6078L163.896 43.3204L164.609 50.7525L171.211 54.2477L169.019 61.384L173.77 67.1451Z" fill="black"/>
<path d="M139.853 91.2048C153.037 91.2048 163.724 80.5237 163.724 67.348C163.724 54.1723 153.037 43.4912 139.853 43.4912C126.67 43.4912 115.982 54.1723 115.982 67.348C115.982 80.5237 126.67 91.2048 139.853 91.2048Z" fill="white"/>
<path d="M139.853 91.6022C126.471 91.6022 115.586 80.723 115.586 67.3499C115.586 53.9768 126.473 43.0977 139.853 43.0977C153.233 43.0977 164.12 53.9768 164.12 67.3499C164.12 80.723 153.233 91.6022 139.853 91.6022ZM139.853 43.8886C126.908 43.8886 116.378 54.4132 116.378 67.3499C116.378 80.2866 126.908 90.8112 139.853 90.8112C152.798 90.8112 163.328 80.2866 163.328 67.3499C163.328 54.4132 152.798 43.8886 139.853 43.8886Z" fill="black"/>
<path d="M138.68 79.4178C138.359 79.4178 138.049 79.2877 137.824 79.0544L128.656 69.538C128.201 69.0659 128.216 68.3142 128.688 67.8581C129.161 67.4039 129.913 67.4181 130.37 67.8902L138.527 76.3573L150.255 59.3144C150.628 58.7747 151.368 58.6375 151.908 59.008C152.449 59.3804 152.586 60.1197 152.215 60.6594L139.661 78.9012C139.457 79.1951 139.135 79.3822 138.778 79.4124C138.746 79.4142 138.714 79.416 138.68 79.416V79.4178Z" fill="black"/>
<path d="M234.267 64.2971L229.913 64.9687L227.093 61.9118C226.487 61.2545 225.319 61.6019 225.117 62.4997L224.176 66.6753L220.122 68.5066C219.25 68.9003 219.163 70.0618 219.974 70.4733L223.748 72.383L224.062 76.5711C224.129 77.4708 225.244 77.8413 225.947 77.1982L229.221 74.2018L233.468 74.959C234.382 75.1211 235.157 74.1894 234.781 73.3806L233.03 69.62L235.341 65.8986C235.838 65.0988 235.204 64.1511 234.266 64.2971H234.267Z" fill="black"/>
<path d="M251.36 54.9779L247.078 55.8258L244.196 52.8437C243.578 52.2024 242.435 52.5997 242.262 53.5153L241.463 57.7729L237.514 59.7806C236.666 60.2117 236.616 61.391 237.431 61.774L241.22 63.559L241.662 67.7809C241.757 68.6895 242.87 69.0208 243.546 68.3421L246.686 65.1872L250.907 65.7893C251.815 65.9193 252.551 64.9449 252.153 64.1433L250.306 60.4076L252.473 56.5562C252.938 55.7278 252.282 54.7962 251.36 54.9779Z" fill="black"/>
<path d="M269.921 47.1989L265.682 47.8527L262.986 44.68C262.407 43.9977 261.267 44.3451 261.058 45.2679L260.087 49.5611L256.126 51.412C255.273 51.8092 255.174 53.0064 255.956 53.4357L259.594 55.4362L259.842 59.7526C259.896 60.6807 260.973 61.0726 261.665 60.4153L264.884 57.3584L268.998 58.176C269.882 58.3524 270.649 57.3976 270.294 56.5621L268.646 52.6732L270.941 48.8628C271.435 48.0433 270.831 47.0618 269.92 47.2025L269.921 47.1989Z" fill="black"/>
<path d="M287.826 39.6062L283.619 40.4364L280.792 37.3795C280.184 36.7221 279.061 37.1176 278.891 38.0475L278.101 42.3763L274.221 44.3911C273.386 44.824 273.336 46.0229 274.135 46.4202L277.853 48.2657L278.283 52.5679C278.376 53.4924 279.467 53.838 280.131 53.1522L283.219 49.9634L287.364 50.6083C288.255 50.7472 288.979 49.7621 288.591 48.9409L286.781 45.1251L288.913 41.2202C289.372 40.3812 288.728 39.4263 287.824 39.6045L287.826 39.6062Z" fill="black"/>
</g>
<defs>
<clipPath id="clip0_935_822">
<rect width="327" height="326" fill="white"/>
</clipPath>
</defs>
</svg>
