<svg width="504" height="593" viewBox="0 0 504 593" fill="none" xmlns="http://www.w3.org/2000/svg">
<path d="M503.5 261C503.5 263.863 502.111 266.71 499.356 269.517C496.6 272.326 492.51 275.059 487.197 277.678C476.575 282.915 461.172 287.646 442.097 291.623C403.957 299.577 351.242 304.5 293 304.5C234.758 304.5 182.043 299.577 143.903 291.623C124.828 287.646 109.425 282.915 98.8025 277.678C93.4904 275.059 89.3998 272.326 86.6436 269.517C83.8892 266.71 82.5 263.863 82.5 261C82.5 258.137 83.8892 255.29 86.6436 252.483C89.3998 249.674 93.4904 246.941 98.8025 244.322C109.425 239.085 124.828 234.354 143.903 230.377C182.043 222.423 234.758 217.5 293 217.5C351.242 217.5 403.957 222.423 442.097 230.377C461.172 234.354 476.575 239.085 487.197 244.322C492.51 246.941 496.6 249.674 499.356 252.483C502.111 255.29 503.5 258.137 503.5 261Z" stroke="#B9FF66"/>
<path d="M503.5 291.5C503.5 294.4 502.109 297.281 499.354 300.12C496.598 302.961 492.507 305.725 487.195 308.374C476.573 313.67 461.171 318.454 442.096 322.477C403.956 330.521 351.242 335.5 293 335.5C234.758 335.5 182.044 330.521 143.904 322.477C124.829 318.454 109.427 313.67 98.8045 308.374C93.4926 305.725 89.402 302.961 86.6456 300.12C83.8911 297.281 82.5 294.4 82.5 291.5C82.5 288.6 83.8911 285.719 86.6456 282.88C89.402 280.039 93.4926 277.275 98.8045 274.626C109.427 269.33 124.829 264.546 143.904 260.523C182.044 252.479 234.758 247.5 293 247.5C351.242 247.5 403.956 252.479 442.096 260.523C461.171 264.546 476.573 269.33 487.195 274.626C492.507 277.275 496.598 280.039 499.354 282.88C502.109 285.719 503.5 288.6 503.5 291.5Z" stroke="#B9FF66"/>
<path d="M503.5 323C503.5 325.863 502.111 328.71 499.356 331.517C496.6 334.326 492.51 337.059 487.197 339.678C476.575 344.915 461.172 349.646 442.097 353.623C403.957 361.577 351.242 366.5 293 366.5C234.758 366.5 182.043 361.577 143.903 353.623C124.828 349.646 109.425 344.915 98.8025 339.678C93.4904 337.059 89.3998 334.326 86.6436 331.517C83.8892 328.71 82.5 325.863 82.5 323C82.5 320.137 83.8892 317.29 86.6436 314.483C89.3998 311.674 93.4904 308.941 98.8025 306.322C109.425 301.085 124.828 296.354 143.903 292.377C182.043 284.423 234.758 279.5 293 279.5C351.242 279.5 403.957 284.423 442.097 292.377C461.172 296.354 476.575 301.085 487.197 306.322C492.51 308.941 496.6 311.674 499.356 314.483C502.111 317.29 503.5 320.137 503.5 323Z" stroke="#B9FF66"/>
<path d="M130 0L145.344 83.0931L206.412 24.9233L170.172 101.201L253.637 90.1733L179.656 130.5L253.637 170.827L170.172 159.799L206.412 236.077L145.344 177.907L130 261L114.656 177.907L53.5879 236.077L89.8278 159.799L6.36266 170.827L80.3444 130.5L6.36266 90.1733L89.8278 101.201L53.5879 24.9233L114.656 83.0931L130 0Z" fill="#D9D9D9"/>
<path d="M377.817 322.971L388.74 394.579L388.81 395.037L389.272 395.002L461.229 389.552L412.277 442.899L411.966 443.238L412.278 443.577L461.27 496.681L389.306 491.589L388.845 491.557L388.776 492.013L377.906 563.678L337.123 503.988L336.861 503.604L336.459 503.837L273.919 540.1L295.022 470.755L295.156 470.314L294.726 470.144L227.604 443.699L294.708 416.919L295.136 416.748L295.001 416.308L273.846 347.065L336.415 383.018L336.817 383.249L337.078 382.865L377.817 322.971Z" stroke="#B9FF66"/>
<path d="M397.256 151.448L442.689 111L452.263 171.185L492.561 216.69L432.526 226.193L386.872 266.561L377.518 206.455L337 160.872L397.256 151.448Z" fill="white"/>
<path d="M143.044 344.966L162.64 309.001L182.393 344.966L218.28 364.641L182.393 384.315L162.64 420.281L143.044 384.315L107 364.641L143.044 344.966Z" fill="white"/>
<circle cx="273" cy="246" r="77.5" fill="#B9FF66" stroke="black"/>
<ellipse cx="247" cy="229" rx="13" ry="25" fill="black"/>
<ellipse cx="298.5" cy="229" rx="12.5" ry="25" fill="black"/>
</svg>
